<?xml version="1.0" encoding="UTF-8"?>
<svg version="1.1" xmlns="http://www.w3.org/2000/svg" width="447" height="447">
<path d="M0 0 C147.51 0 295.02 0 447 0 C447 147.51 447 295.02 447 447 C299.49 447 151.98 447 0 447 C0 299.49 0 151.98 0 0 Z " fill="#FEFEFE" transform="translate(0,0)"/>
<path d="M0 0 C0 33.99 0 67.98 0 103 C4.95 103 9.9 103 15 103 C15 69.01 15 35.02 15 0 C46.74640293 -0.08817503 78.49268707 -0.16203421 110.2391756 -0.20426132 C113.98676181 -0.20926417 117.73434777 -0.21444146 121.48193359 -0.21972656 C122.22801342 -0.2207758 122.97409325 -0.22182505 123.74278156 -0.22290608 C135.82470653 -0.2403134 147.9065554 -0.27185287 159.98843522 -0.30861118 C172.38469548 -0.34601156 184.78091587 -0.36823393 197.17723024 -0.37635398 C204.82703439 -0.38184365 212.47662346 -0.39918486 220.12636141 -0.43166587 C225.99125912 -0.45530053 231.8560463 -0.45782211 237.72099304 -0.45243073 C240.12764689 -0.45353282 242.53430875 -0.4615112 244.94091415 -0.4768219 C248.22341284 -0.49668384 251.50498661 -0.49195228 254.7875061 -0.48101807 C255.74276613 -0.49266943 256.69802615 -0.5043208 257.68223345 -0.51632524 C263.44710131 -0.46431711 266.55973359 0.25539442 271 4 C273.98706795 7.08156501 274.38022392 9.22584506 274.40405273 13.46777344 C274.42307899 15.11033112 274.42307899 15.11033112 274.44248962 16.78607178 C274.43808617 18.55485687 274.43808617 18.55485687 274.43359375 20.359375 C274.4388356 21.57772034 274.44407745 22.79606567 274.44947815 24.05133057 C274.45590284 26.63024127 274.45455563 29.20918127 274.44604492 31.78808594 C274.43756203 35.72123967 274.46624955 39.65292826 274.49804688 43.5859375 C274.49965971 46.09374957 274.49907978 48.60156419 274.49609375 51.109375 C274.50732773 52.28046814 274.51856171 53.45156128 274.53013611 54.65814209 C274.47152741 61.57831025 273.73646562 66.12295379 270 72 C267.19581482 74.66397592 264.44589301 76.32085722 261 78 C262.216875 78.495 263.43375 78.99 264.6875 79.5 C269.56163484 81.48269892 271.99308497 85.29726244 274 90 C274.71407733 94.35239668 274.70161741 98.63579603 274.6640625 103.0390625 C274.66884613 104.27868744 274.67362976 105.51831238 274.67855835 106.79550171 C274.68194938 109.40599849 274.67280324 112.01653819 274.65185547 114.62695312 C274.63391524 117.29776434 274.62906689 119.96353729 274.65185547 122.63378906 C274.68276984 126.49856067 274.67899971 130.36172322 274.6640625 134.2265625 C274.67418365 135.41730377 274.68430481 136.60804504 274.69473267 137.83486938 C274.5645719 147.0423502 274.5645719 147.0423502 271.70849609 150.67333984 C267.94709209 153.904472 265.3898157 155.25206934 260.41888428 155.24050903 C259.50465698 155.24325836 258.59042969 155.24600769 257.64849854 155.24884033 C256.65299988 155.24164978 255.65750122 155.23445923 254.63183594 155.22705078 C253.05088135 155.22748886 253.05088135 155.22748886 251.43798828 155.22793579 C247.95336685 155.22654217 244.46895909 155.21097922 240.984375 155.1953125 C238.56870643 155.19158249 236.15303635 155.18873546 233.73736572 155.18673706 C227.37841619 155.17909968 221.01955798 155.15945018 214.66064453 155.1373291 C208.17221309 155.116873 201.68376689 155.10773584 195.1953125 155.09765625 C182.4635027 155.07620448 169.73175621 155.04245146 157 155 C156.97687434 146.02079223 156.95908377 137.04159463 156.94818783 128.06236362 C156.94295949 123.89337172 156.93586274 119.72440013 156.92456055 115.55541992 C156.91372992 111.53542314 156.90772279 107.51544595 156.90512276 103.49543571 C156.90326882 101.95837025 156.89964881 100.42130591 156.89426994 98.88424873 C156.88705716 96.73864513 156.88600916 94.59312345 156.88647461 92.44750977 C156.884254 91.22395279 156.88203339 90.00039581 156.87974548 88.73976135 C157 86 157 86 158 85 C160.08619022 84.90582227 162.17560477 84.88257122 164.26391602 84.88647461 C165.2443689 84.88625557 165.2443689 84.88625557 166.24462891 84.8860321 C168.41442128 84.88673117 170.58412879 84.89452322 172.75390625 84.90234375 C174.25463311 84.90420795 175.75536057 84.90563184 177.25608826 84.90663147 C181.21318226 84.91045648 185.17023978 84.9202866 189.12731934 84.93133545 C193.16234849 84.94154994 197.19738353 84.94612917 201.23242188 84.95117188 C209.15496656 84.9619089 217.07747454 84.97950555 225 85 C225 80.05 225 75.1 225 70 C197.61 70 170.22 70 142 70 C142 98.05 142 126.1 142 155 C121.87 155 101.74 155 81 155 C81 127.28 81 99.56 81 71 C76.05 71 71.1 71 66 71 C66.0314209 74.36082764 66.0314209 74.36082764 66.06347656 77.78955078 C66.12982598 85.20145127 66.17396706 92.61336504 66.20724869 100.02548409 C66.22810237 104.51845159 66.25637917 109.0111142 66.30175781 113.50390625 C66.34529518 117.84166323 66.3691538 122.17912738 66.37950897 126.51708603 C66.38688623 128.17007938 66.40129247 129.82305713 66.42292023 131.47592545 C66.4520602 133.79566021 66.45595174 136.11419299 66.45410156 138.43408203 C66.46298401 139.75312531 66.47186646 141.07216858 66.48101807 142.43118286 C65.90525798 146.70291946 64.81044909 148.74879864 62 152 C56.98777235 155.49714118 52.30572636 155.43398878 46.41796875 155.40405273 C45.47088043 155.41091599 44.52379211 155.41777924 43.54800415 155.42485046 C40.42768219 155.44310258 37.30786372 155.43928356 34.1875 155.43359375 C32.01326331 155.43815591 29.83902807 155.44346158 27.66479492 155.44947815 C23.11208226 155.45840585 18.55954505 155.45598945 14.00683594 155.44604492 C8.17591422 155.43454871 2.3455975 155.45477888 -3.48524475 155.48396206 C-7.97371255 155.50231604 -12.4620351 155.50203328 -16.95053101 155.49632454 C-19.10029958 155.49617127 -21.25007795 155.5022206 -23.39981079 155.51461601 C-26.40624883 155.52951077 -29.41156555 155.51886003 -32.41796875 155.50170898 C-33.74603043 155.51621094 -33.74603043 155.51621094 -35.10092163 155.53100586 C-40.54903286 155.4659976 -43.71278054 154.67446712 -48 151 C-50.95567565 147.78140103 -51.37608199 145.65163157 -51.38095093 141.32034302 C-51.3894104 140.16236206 -51.39786987 139.0043811 -51.40658569 137.81130981 C-51.39747665 135.911418 -51.39747665 135.911418 -51.38818359 133.97314453 C-51.39224976 132.62269669 -51.3975919 131.27225218 -51.40411377 129.92181396 C-51.41779057 126.25639264 -51.41248665 122.59122465 -51.40297651 118.92579889 C-51.39537864 115.08755977 -51.40242617 111.24934227 -51.40713501 107.41110229 C-51.41259352 100.96331899 -51.40539988 94.51563875 -51.39111328 88.06787109 C-51.37480036 80.61971865 -51.38006491 73.17181274 -51.3965925 65.72366631 C-51.41022123 59.32522193 -51.41211985 52.92685165 -51.40427649 46.52839744 C-51.39960579 42.70860944 -51.39895816 38.88893716 -51.40888596 35.06915665 C-51.41757309 31.47561147 -51.41150215 27.88238287 -51.39420319 24.28887177 C-51.38836446 22.34583467 -51.39723999 20.40277071 -51.40658569 18.45974731 C-51.32498065 7.23477913 -51.32498065 7.23477913 -48 3 C-33.66124134 -4.16937933 -16.03121954 0 0 0 Z " fill="#0B3BD5" transform="translate(112,146)"/>
<path d="M0 0 C0.66 0 1.32 0 2 0 C2 27.72 2 55.44 2 84 C-17.8 84 -37.6 84 -58 84 C-58 59.91 -58 35.82 -58 11 C-57.67 11 -57.34 11 -57 11 C-57 34.76 -57 58.52 -57 83 C-38.19 83 -19.38 83 0 83 C-0.08378906 77.42738281 -0.16757813 71.85476563 -0.25390625 66.11328125 C-0.30462447 62.58138643 -0.35502776 59.04949273 -0.40429688 55.51757812 C-0.48251645 49.91246589 -0.56189686 44.30738704 -0.64819336 38.70239258 C-0.71769982 34.18318048 -0.78199742 29.66392144 -0.84269524 25.14458275 C-0.8667574 23.42100525 -0.8926914 21.69745283 -0.92053413 19.97393227 C-0.95923216 17.5585891 -0.99125397 15.1432422 -1.02172852 12.7277832 C-1.03467453 12.01640198 -1.04762054 11.30502075 -1.06095886 10.57208252 C-1.09983856 6.90929837 -0.88018715 3.56036902 0 0 Z " fill="#0B34B1" transform="translate(252,216)"/>
<path d="M0 0 C1.0625 1.8125 1.0625 1.8125 2 4 C1.67 4.99 1.34 5.98 1 7 C-0.65 5.35 -2.3 3.7 -4 2 C-2.68 1.34 -1.36 0.68 0 0 Z " fill="#0D3CC1" transform="translate(67,293)"/>
<path d="M0 0 C0.33 0.99 0.66 1.98 1 3 C-2.32307692 6.93846154 -2.32307692 6.93846154 -5.75 7.25 C-6.4925 7.1675 -7.235 7.085 -8 7 C-7.13375 6.38125 -7.13375 6.38125 -6.25 5.75 C-3.97483401 3.98042645 -2.00004601 2.07147622 0 0 Z " fill="#D3E4F3" transform="translate(176,294)"/>
<path d="M0 0 C1.65 0.99 3.3 1.98 5 3 C4.67 3.99 4.34 4.98 4 6 C2.02 4.68 0.04 3.36 -2 2 C-1.34 1.34 -0.68 0.68 0 0 Z " fill="#DBE8F5" transform="translate(378,224)"/>
<path d="M0 0 C0.33 0.66 0.66 1.32 1 2 C0.0625 4.625 0.0625 4.625 -1 7 C-2.65 7 -4.3 7 -6 7 C-4.02 4.69 -2.04 2.38 0 0 Z " fill="#D3E1F3" transform="translate(383,215)"/>
</svg>
